<svg width="175" height="17" viewBox="0 0 175 17" fill="none" xmlns="http://www.w3.org/2000/svg">
<g clip-path="url(#clip0_5294_381)">
<path d="M173.765 8.73486H1.23529C0.55306 8.73486 0 9.21837 0 9.81481C0 10.4112 0.55306 10.8948 1.23529 10.8948H173.765C174.447 10.8948 175 10.4112 175 9.81481C175 9.21837 174.447 8.73486 173.765 8.73486Z" fill="#009245"/>
<path d="M16.2482 16.1361C16.2336 15.9827 16.2336 15.8286 16.2482 15.6753V11.6111H13.6335V15.7473C13.6335 15.8913 13.6335 16.0065 13.6335 16.1505C13.5182 16.3952 13.5017 16.3808 13.2876 16.3808V16.5824H16.6764V16.3952C16.4705 16.3952 16.417 16.3664 16.2482 16.1361Z" fill="#FAFAFA"/>
<path d="M35.1606 16.1505C35.1327 16.0175 35.1217 15.8823 35.1277 15.7473V11.6111H24.043V15.7761C24.0337 15.8976 24.0117 16.0181 23.9771 16.1361C23.8783 16.3664 23.7795 16.3088 23.6147 16.3808V16.568H26.4971V16.3808C26.2995 16.3376 26.2006 16.3808 26.1183 16.1217V12.4786H32.97V16.1649C32.8712 16.3952 32.8712 16.3952 32.5871 16.3952V16.5824H35.5065V16.424C35.3253 16.3808 35.2759 16.4096 35.1606 16.1505Z" fill="#FAFAFA"/>
<path d="M48.2054 14.8113L48.1354 14.9409C47.9564 15.0122 47.7577 15.0372 47.563 15.0129H40.353V12.493H44.9318C45.117 12.4817 45.3016 12.522 45.4589 12.6082L45.706 12.7234V11.6111H38.1418V15.7761C38.1603 15.8955 38.1603 16.0166 38.1418 16.1361C38.1434 16.1708 38.1363 16.2054 38.1209 16.2374C38.1055 16.2695 38.0823 16.2982 38.0528 16.3215C38.0234 16.3449 37.9884 16.3623 37.9505 16.3725C37.9125 16.3828 37.8724 16.3856 37.833 16.3808V16.5824H47.7154C47.8652 16.5898 48.0132 16.614 48.1559 16.6544L48.226 16.784H48.4236V14.8509L48.2054 14.8113Z" fill="#FAFAFA"/>
<path d="M68.9418 14.3793C68.9006 14.4081 68.8882 14.5377 68.8512 14.6097C68.7235 14.7825 68.2006 14.7537 68.2006 14.7537H60.1176V11.6111H57.5153V15.7473C57.5345 15.886 57.5345 16.0262 57.5153 16.1649C57.437 16.3664 57.2723 16.3808 57.1035 16.3808V16.5824H68.2706C68.4288 16.568 68.5887 16.5827 68.74 16.6256C68.8175 16.6553 68.8813 16.707 68.9209 16.7724C68.9605 16.8377 68.9737 16.9129 68.9582 16.9856H69.1765V14.3793H68.9418Z" fill="#FAFAFA"/>
<path d="M84.8481 11.6111H82.7893C82.845 11.9953 82.8241 12.385 82.7276 12.763C82.5635 13.3155 82.2297 13.8182 81.7623 14.2167C81.2949 14.6151 80.7116 14.8942 80.0758 15.0237C78.5976 15.4413 76.1764 15.3837 74.7723 14.3037C74.3561 13.9596 74.0302 13.5407 73.8169 13.0758C73.6037 12.611 73.5082 12.1113 73.537 11.6111H71.437C71.4302 12.3405 71.5977 13.063 71.9288 13.7325C72.26 14.402 72.7474 15.0036 73.3599 15.4989C75.5793 17.1836 78.7128 17.0252 80.7223 16.5212C82.8099 15.9885 84.0164 15.0813 84.6217 13.339C84.8187 12.7802 84.8955 12.1943 84.8481 11.6111Z" fill="#FAFAFA"/>
<path d="M98.6505 16.1073V15.7185V11.6111H96.7646V13.7134L94.5328 11.6111H91.6093L96.3528 16.0065C96.4681 16.1217 96.534 16.1361 96.534 16.28L96.3199 16.3952V16.5824H99.0169V16.3952C98.7164 16.3952 98.6999 16.2656 98.6505 16.1073ZM89.3528 16.0353V11.6111H87.4752V16.0929C87.4752 16.3088 87.3928 16.3808 87.1787 16.3808V16.5824H89.6493V16.3952L89.5052 16.3664C89.2993 16.3088 89.3528 16.1505 89.3528 16.0353Z" fill="#FAFAFA"/>
<path d="M113.235 14.4911V12.1333C113.235 12.0469 113.235 11.9461 113.235 11.8453L113.4 11.7589V11.6149V11.5573H108.735C108.596 11.5681 108.455 11.5534 108.323 11.5141C108.252 11.5219 108.179 11.5074 108.119 11.4731C108.059 11.4389 108.014 11.3871 107.994 11.3269H107.779V13.3572H108.01C108.105 13.1988 108.092 13.17 108.307 13.1124H109.06C109.278 13.1124 109.492 13.1124 109.723 13.1124H111.107V14.6387C109.361 15.3011 106.458 15.6323 104.699 14.3652C104.235 14.0372 103.869 13.6147 103.635 13.1346C103.4 12.6545 103.303 12.1315 103.353 11.6113H101.241C101.227 11.8998 101.24 12.1888 101.282 12.4752C101.367 13.3122 101.716 14.112 102.29 14.7857C102.865 15.4594 103.642 15.9805 104.535 16.2911C106.923 17.2126 110.942 16.8094 113.441 15.2543V15.0383C113.161 14.9411 113.235 14.6675 113.235 14.4911Z" fill="#FAFAFA"/>
<path d="M133.959 14.3793C133.926 14.4542 133.9 14.5313 133.881 14.6097C133.749 14.7825 133.222 14.7537 133.222 14.7537H125.123V11.6111H122.52V15.7473C122.535 15.8862 122.535 16.026 122.52 16.1649C122.438 16.3664 122.269 16.3808 122.088 16.3808V16.5824H133.251C133.412 16.5682 133.575 16.5829 133.729 16.6256C133.805 16.656 133.868 16.7081 133.906 16.7735C133.944 16.8389 133.956 16.9137 133.939 16.9856H134.219V14.3793H133.959Z" fill="#FAFAFA"/>
<path d="M139.176 16.0641C139.16 15.9061 139.153 15.7475 139.156 15.5889V11.6111H137.002V15.6753C137.017 15.8302 137.001 15.9863 136.953 16.1361C136.92 16.2138 136.857 16.2791 136.775 16.3211C136.694 16.3631 136.598 16.3791 136.504 16.3664V16.5824H139.568L139.605 16.3952C139.255 16.3088 139.255 16.3088 139.176 16.0641Z" fill="#FAFAFA"/>
<path d="M153.35 16.1073V15.7185V11.6111H151.492V13.7134L149.232 11.6111H146.308L151.023 16.0029C151.147 16.1181 151.204 16.1325 151.204 16.2764L150.994 16.3916V16.5788H153.687V16.3916C153.415 16.3952 153.399 16.2656 153.35 16.1073ZM144.031 16.0353V11.6111H142.154V16.0929C142.154 16.3088 142.067 16.3808 141.857 16.3808V16.5824H144.328V16.3952L144.18 16.3664C143.994 16.3088 144.031 16.1505 144.031 16.0353Z" fill="#FAFAFA"/>
<path d="M166.378 14.8113L166.308 14.9409C166.129 15.0122 165.93 15.0372 165.735 15.0129H158.529V12.493H163.108C163.291 12.4799 163.474 12.5204 163.627 12.6082L163.882 12.7234V11.6111H156.318V15.7761C156.33 15.8963 156.323 16.0174 156.298 16.1361C156.299 16.1708 156.292 16.2054 156.277 16.2374C156.261 16.2695 156.238 16.2982 156.209 16.3215C156.179 16.3449 156.144 16.3623 156.106 16.3725C156.068 16.3828 156.028 16.3856 155.989 16.3808V16.5824H165.871C166.021 16.5898 166.169 16.614 166.312 16.6544L166.382 16.784H166.579V14.8509L166.378 14.8113Z" fill="#FAFAFA"/>
<path d="M21.0783 1.19323H21.3254V3.8103H21.1442C21.1419 3.73669 21.1138 3.66546 21.0637 3.60624C21.0137 3.54702 20.944 3.50265 20.8642 3.47912C20.731 3.43986 20.5927 3.41566 20.4525 3.40712C20.123 3.40712 19.7277 3.40712 19.5466 3.40712H16.2525V8.01129H13.6336V3.39272H9.38422C9.38422 3.39272 8.97245 3.39272 8.92304 3.39272C8.74186 3.46472 8.69245 3.52231 8.69245 3.7815H8.4248V1.17163H8.69245V1.31562C8.7189 1.38126 8.76882 1.43771 8.83483 1.47661C8.90083 1.51551 8.97941 1.53479 9.05892 1.53161C9.18823 1.55237 9.32079 1.55237 9.4501 1.53161H20.7777C21.0783 1.43802 21.0001 1.45242 21.0783 1.19323Z" fill="#FAFAFA"/>
<path d="M32.5871 3.43603H35.5065V3.65201C35.2595 3.60882 35.2101 3.8392 35.1606 3.9544C35.1112 4.06959 35.1277 4.27118 35.1277 4.37198V8.0114H24.043V3.83921C23.9606 3.63762 23.8618 3.59442 23.6971 3.59442L23.6477 3.40723H26.5301V3.60882C26.4497 3.60857 26.371 3.62889 26.3037 3.66727C26.2364 3.70565 26.1834 3.76041 26.1512 3.82481C26.1437 3.94471 26.1437 4.06488 26.1512 4.18479V7.25183H32.9701V4.22799C32.9701 4.06959 33.0524 3.81041 32.7559 3.66641H32.6242L32.5871 3.43603Z" fill="#FAFAFA"/>
<path d="M57.0623 1.53174H60.587V1.76213C60.4979 1.75895 60.4095 1.77746 60.3317 1.81559C60.2539 1.85373 60.1898 1.90999 60.1464 1.97812C60.0944 2.13091 60.0776 2.29119 60.097 2.44969V8.01141H57.4946V2.3849C57.509 2.24238 57.509 2.09903 57.4946 1.95652C57.4585 1.8894 57.3996 1.83366 57.3259 1.79694C57.2522 1.76021 57.1673 1.74428 57.0828 1.75133L57.0623 1.53174Z" fill="#FAFAFA"/>
<path d="M90.0406 3.8104L94.5329 8.01138H91.6094L89.3529 5.89829V8.01138H87.4753V4.24237C87.4801 4.12167 87.469 4.00089 87.4423 3.88239C87.4423 3.7528 87.3929 3.59441 87.1912 3.59441V3.37842H90.2259V3.58001L90.0447 3.6808L90.0406 3.8104Z" fill="#FAFAFA"/>
<path d="M48.0528 3.29199H48.234V5.2359H48.0405L47.9911 5.1063C47.8111 5.02862 47.6108 4.99385 47.4105 5.00551H40.2993V7.38139H45.0099C45.1548 7.40043 45.3024 7.36944 45.4216 7.29499L45.4669 7.1798H45.7058V8.01136H38.1416V4.37194C38.1416 4.27114 38.1087 4.08395 38.1087 3.95436C38.1087 3.92556 38.0716 3.76717 38.0428 3.72397C37.9593 3.67845 37.8711 3.63988 37.7793 3.60878V3.43599H47.5958C47.8264 3.43599 47.8264 3.43598 47.9746 3.39279L48.0528 3.29199Z" fill="#FAFAFA"/>
<path d="M96.4478 3.40723H98.9595V3.65201H98.8236C98.5807 3.81041 98.6425 4.11279 98.6425 4.22799V8.0114H96.7648V4.32878C96.7648 4.19919 96.7648 4.05519 96.7648 3.9256C96.7648 3.70961 96.666 3.70961 96.4519 3.60882L96.4478 3.40723Z" fill="#FAFAFA"/>
<path d="M112.667 3.98326L112.865 4.11285L111.675 6.17195L111.452 6.09995V5.91276C110.672 5.36763 109.746 5.00497 108.761 4.85887C107.777 4.71277 106.766 4.78804 105.823 5.07761C105.201 5.27226 104.648 5.6082 104.223 6.05099C103.797 6.49379 103.514 7.02751 103.402 7.59748C103.378 7.73787 103.365 7.88186 103.353 8.02946H101.24C101.265 7.334 101.467 6.65214 101.833 6.03411C102.198 5.41608 102.718 4.87763 103.353 4.45844C105.642 2.86012 109.859 3.2201 111.716 3.82487C111.84 3.88403 111.971 3.93226 112.107 3.96886C112.241 4.03089 112.388 4.06998 112.539 4.08406L112.667 3.98326Z" fill="#FAFAFA"/>
<path d="M144.739 3.8104L149.232 8.01138H146.308L144.031 5.89469V8.01138H142.154V4.24237C142.159 4.12149 142.146 4.0005 142.116 3.88239C142.116 3.7528 142.067 3.59441 141.874 3.59441V3.37842H144.9L144.921 3.58001L144.739 3.6808V3.8104Z" fill="#FAFAFA"/>
<path d="M151.146 3.40723H153.662V3.65201H153.514C153.263 3.81041 153.333 4.11279 153.333 4.22799V8.0114H151.476V4.32878C151.476 4.19919 151.455 4.05519 151.455 3.9256C151.455 3.70961 151.356 3.70961 151.146 3.60882V3.40723Z" fill="#FAFAFA"/>
<path d="M122.092 1.53174H125.617V1.76213C125.527 1.75868 125.438 1.77705 125.36 1.81517C125.281 1.8533 125.216 1.9097 125.172 1.97812C125.122 2.13124 125.106 2.29118 125.123 2.44969V8.01141H122.521V2.3849C122.537 2.24247 122.537 2.09895 122.521 1.95652C122.484 1.8894 122.425 1.83366 122.352 1.79694C122.278 1.76021 122.193 1.74428 122.109 1.75133L122.092 1.53174Z" fill="#FAFAFA"/>
<path d="M166.411 3.29199V5.2359H166.209L166.163 5.1063C165.985 5.02924 165.786 4.99449 165.587 5.00551H158.476V7.38139H163.182C163.254 7.3916 163.327 7.38922 163.398 7.37439C163.469 7.35956 163.535 7.33257 163.594 7.29499L163.648 7.1798H163.882V8.01136H156.318V4.37194C156.318 4.27114 156.285 4.08395 156.285 3.95436C156.285 3.92556 156.248 3.76717 156.219 3.72397C156.136 3.67845 156.048 3.63988 155.956 3.60878V3.43599H165.768C165.999 3.43599 165.999 3.43598 166.147 3.39279L166.213 3.29199H166.411Z" fill="#FAFAFA"/>
<path d="M136.533 3.37842H139.588V3.6664C139.42 3.6664 139.292 3.6664 139.177 3.92559C139.13 4.07059 139.113 4.22179 139.127 4.37197V8.01138H136.974V4.35757C136.988 4.20739 136.971 4.05619 136.924 3.91119C136.825 3.6664 136.677 3.652 136.512 3.652L136.533 3.37842Z" fill="#FAFAFA"/>
<path d="M71.647 8.01137H73.7058C73.6511 7.62728 73.6706 7.23788 73.7635 6.85943C73.9287 6.30688 74.2634 5.80427 74.7314 5.40586C75.1995 5.00745 75.7831 4.72837 76.4193 4.59875C77.9017 4.18117 80.327 4.23876 81.7311 5.31871C82.1479 5.66244 82.4743 6.08128 82.6876 6.54623C82.9009 7.01117 82.996 7.5111 82.9664 8.01137H85.0705C85.0773 7.28167 84.9093 6.55881 84.5774 5.88924C84.2456 5.21968 83.7571 4.61823 83.1435 4.12357C80.9199 2.43885 77.7905 2.59725 75.7729 3.10122C73.677 3.63399 72.4787 4.54115 71.8652 6.28346C71.671 6.8427 71.597 7.42856 71.647 8.01137Z" fill="#FAFAFA"/>
</g>
<defs>
<clipPath id="clip0_5294_381">
<rect width="175" height="17" fill="white"/>
</clipPath>
</defs>
</svg>
