<svg width="175" height="17" viewBox="0 0 175 17" fill="none" xmlns="http://www.w3.org/2000/svg">
<g clip-path="url(#clip0_5575_1950)">
<path d="M167.793 7.40234H-0.792941C-1.45958 7.40234 -2 7.88585 -2 8.48229C-2 9.07873 -1.45958 9.56224 -0.792941 9.56224H167.793C168.46 9.56224 169 9.07873 169 8.48229C169 7.88585 168.46 7.40234 167.793 7.40234Z" fill="#009245"/>
<path d="M13.8768 14.8035C13.8625 14.6502 13.8625 14.4961 13.8768 14.3428V10.2786H11.3219V14.4148C11.3219 14.5587 11.3219 14.6739 11.3219 14.8179C11.2092 15.0627 11.1931 15.0483 10.9839 15.0483V15.2499H14.2953V15.0627C14.0941 15.0627 14.0418 15.0339 13.8768 14.8035Z" fill="#1C1514"/>
<path d="M32.3569 14.8179C32.3296 14.685 32.3188 14.5498 32.3247 14.4148V10.2786H21.4934V14.4436C21.4843 14.5651 21.4628 14.6856 21.429 14.8035C21.3325 15.0339 21.2359 14.9763 21.075 15.0483V15.2355H23.8914V15.0483C23.6983 15.0051 23.6017 15.0483 23.5213 14.7891V11.1461H30.2164V14.8323C30.1198 15.0627 30.1198 15.0627 29.8422 15.0627V15.2499H32.6949V15.0915C32.5179 15.0483 32.4696 15.0771 32.3569 14.8179Z" fill="#1C1514"/>
<path d="M45.1035 13.4788L45.0351 13.6084C44.8602 13.6797 44.6661 13.7047 44.4759 13.6804H37.4307V11.1605H41.9048C42.0858 11.1492 42.2661 11.1895 42.4198 11.2757L42.6613 11.3909V10.2786H35.27V14.4436C35.2881 14.563 35.2881 14.6841 35.27 14.8035C35.2716 14.8383 35.2646 14.8729 35.2496 14.9049C35.2345 14.9369 35.2118 14.9657 35.1831 14.989C35.1543 15.0123 35.1201 15.0297 35.083 15.04C35.0459 15.0502 35.0067 15.0531 34.9683 15.0483V15.2499H44.6247C44.7711 15.2573 44.9158 15.2815 45.0553 15.3219L45.1237 15.4515H45.3168V13.5184L45.1035 13.4788Z" fill="#1C1514"/>
<path d="M65.366 13.0468C65.3258 13.0756 65.3137 13.2052 65.2775 13.2772C65.1527 13.45 64.6418 13.4212 64.6418 13.4212H56.7436V10.2786H54.2007V14.4148C54.2195 14.5534 54.2195 14.6937 54.2007 14.8323C54.1242 15.0339 53.9633 15.0483 53.7983 15.0483V15.2499H64.7102C64.8647 15.2354 65.021 15.2502 65.1688 15.2931C65.2446 15.3228 65.3069 15.3745 65.3456 15.4398C65.3843 15.5052 65.3972 15.5804 65.3821 15.6531H65.5953V13.0468H65.366Z" fill="#1C1514"/>
<path d="M80.9088 10.2786H78.897C78.9514 10.6628 78.931 11.0525 78.8367 11.4305C78.6764 11.983 78.3502 12.4857 77.8935 12.8841C77.4367 13.2826 76.8668 13.5617 76.2455 13.6912C74.8011 14.1088 72.4352 14.0512 71.0632 12.9712C70.6565 12.6271 70.3381 12.2081 70.1297 11.7433C69.9213 11.2785 69.828 10.7788 69.8561 10.2786H67.8041C67.7975 11.0079 67.9612 11.7305 68.2848 12.4C68.6083 13.0695 69.0846 13.6711 69.6831 14.1664C71.8518 15.8511 74.9137 15.6927 76.8772 15.1887C78.9171 14.6559 80.096 13.7488 80.6875 12.0065C80.88 11.4477 80.955 10.8618 80.9088 10.2786Z" fill="#1C1514"/>
<path d="M94.3956 14.7747V14.386V10.2786H92.5528V12.3809L90.3721 10.2786H87.5154L92.1505 14.6739C92.2631 14.7891 92.3275 14.8035 92.3275 14.9475L92.1183 15.0627V15.2499H94.7537V15.0627C94.46 15.0627 94.4439 14.9331 94.3956 14.7747ZM85.3105 14.7027V10.2786H83.4757V14.7603C83.4757 14.9763 83.3953 15.0483 83.186 15.0483V15.2499H85.6002V15.0627L85.4593 15.0339C85.2582 14.9763 85.3105 14.8179 85.3105 14.7027Z" fill="#1C1514"/>
<path d="M108.647 13.1586V10.8007C108.647 10.7143 108.647 10.6136 108.647 10.5128L108.808 10.4264V10.2824V10.2248H104.249C104.113 10.2356 103.976 10.2209 103.847 10.1816C103.777 10.1894 103.707 10.1748 103.648 10.1406C103.589 10.1063 103.545 10.0545 103.525 9.99438H103.316V12.0247H103.541C103.634 11.8663 103.622 11.8375 103.831 11.7799H104.567C104.78 11.7799 104.99 11.7799 105.215 11.7799H106.567V13.3062C104.861 13.9686 102.024 14.2998 100.306 13.0326C99.8523 12.7046 99.4951 12.2821 99.2657 11.8021C99.0364 11.322 98.9419 10.799 98.9906 10.2788H96.9266C96.9129 10.5673 96.9263 10.8563 96.9668 11.1427C97.05 11.9796 97.3912 12.7795 97.9524 13.4532C98.5136 14.1269 99.2728 14.648 100.145 14.9585C102.479 15.8801 106.406 15.4769 108.848 13.9218V13.7058C108.575 13.6086 108.647 13.335 108.647 13.1586Z" fill="#1C1514"/>
<path d="M128.897 13.0468C128.865 13.1217 128.84 13.1988 128.821 13.2772C128.692 13.45 128.177 13.4212 128.177 13.4212H120.263V10.2786H117.72V14.4148C117.735 14.5536 117.735 14.6935 117.72 14.8323C117.64 15.0339 117.475 15.0483 117.298 15.0483V15.2499H128.205C128.363 15.2357 128.521 15.2504 128.672 15.2931C128.747 15.3234 128.808 15.3756 128.845 15.441C128.882 15.5064 128.894 15.5812 128.877 15.6531H129.151V13.0468H128.897Z" fill="#1C1514"/>
<path d="M133.995 14.7315C133.979 14.5736 133.973 14.415 133.975 14.2564V10.2786H131.871V14.3428C131.886 14.4977 131.869 14.6537 131.823 14.8035C131.79 14.8812 131.729 14.9466 131.649 14.9886C131.569 15.0306 131.476 15.0466 131.384 15.0339V15.2499H134.378L134.414 15.0627C134.072 14.9763 134.072 14.9763 133.995 14.7315Z" fill="#1C1514"/>
<path d="M147.844 14.7747V14.386V10.2786H146.03V12.3809L143.821 10.2786H140.964L145.571 14.6703C145.692 14.7855 145.748 14.7999 145.748 14.9439L145.543 15.0591V15.2463H148.174V15.0591C147.909 15.0627 147.893 14.9331 147.844 14.7747ZM138.739 14.7027V10.2786H136.904V14.7603C136.904 14.9763 136.82 15.0483 136.615 15.0483V15.2499H139.029V15.0627L138.884 15.0339C138.703 14.9763 138.739 14.8179 138.739 14.7027Z" fill="#1C1514"/>
<path d="M160.575 13.4788L160.506 13.6084C160.331 13.6797 160.137 13.7047 159.947 13.6804H152.906V11.1605H157.38C157.559 11.1473 157.737 11.1879 157.887 11.2757L158.136 11.3909V10.2786H150.745V14.4436C150.757 14.5638 150.75 14.6849 150.725 14.8035C150.727 14.8383 150.72 14.8729 150.705 14.9049C150.69 14.9369 150.667 14.9657 150.638 14.989C150.609 15.0123 150.575 15.0297 150.538 15.04C150.501 15.0502 150.462 15.0531 150.423 15.0483V15.2499H160.08C160.226 15.2573 160.371 15.2815 160.51 15.3219L160.579 15.4515H160.772V13.5184L160.575 13.4788Z" fill="#1C1514"/>
<path d="M18.5965 -0.139289H18.8379V2.47778H18.6609C18.6586 2.40417 18.6311 2.33294 18.5822 2.27372C18.5333 2.2145 18.4653 2.17013 18.3873 2.1466C18.2571 2.10734 18.1219 2.08314 17.9849 2.0746C17.663 2.0746 17.2768 2.0746 17.0997 2.0746H13.8809V6.67877H11.3219V2.0602H7.16966C7.16966 2.0602 6.76731 2.0602 6.71903 2.0602C6.54199 2.1322 6.49371 2.18979 6.49371 2.44898H6.23218V-0.160889H6.49371V-0.0168954C6.51955 0.0487406 6.56833 0.105186 6.63283 0.144086C6.69732 0.182987 6.7741 0.202274 6.8518 0.199093C6.97816 0.219852 7.10768 0.219852 7.23404 0.199093H18.3028C18.5965 0.105498 18.52 0.119898 18.5965 -0.139289Z" fill="#1C1514"/>
<path d="M29.8423 2.10351H32.6949V2.31949C32.4535 2.2763 32.4052 2.50669 32.357 2.62188C32.3087 2.73707 32.3248 2.93866 32.3248 3.03946V6.67888H21.4934V2.50669C21.413 2.3051 21.3164 2.2619 21.1555 2.2619L21.1072 2.07471H23.9236V2.2763C23.8451 2.27605 23.7682 2.29637 23.7025 2.33475C23.6367 2.37313 23.5849 2.42789 23.5535 2.49229C23.5461 2.61219 23.5461 2.73236 23.5535 2.85227V5.91931H30.2164V2.89547C30.2164 2.73707 30.2969 2.47789 30.0072 2.33389H29.8785L29.8423 2.10351Z" fill="#1C1514"/>
<path d="M53.7581 0.199219H57.2022V0.429607C57.1151 0.426429 57.0288 0.444937 56.9528 0.483072C56.8768 0.521206 56.8141 0.577471 56.7717 0.645597C56.7209 0.798389 56.7045 0.95867 56.7234 1.11717V6.67889H54.1805V1.05238C54.1946 0.909861 54.1946 0.766512 54.1805 0.623998C54.1453 0.556878 54.0877 0.501145 54.0157 0.464417C53.9436 0.427689 53.8607 0.41176 53.7782 0.418808L53.7581 0.199219Z" fill="#1C1514"/>
<path d="M85.9825 2.47788L90.3722 6.67887H87.5155L85.3106 4.56577V6.67887H83.4759V2.90985C83.4805 2.78915 83.4697 2.66837 83.4437 2.54987C83.4437 2.42028 83.3954 2.26189 83.1982 2.26189V2.0459H86.1636V2.24749L85.9865 2.34828L85.9825 2.47788Z" fill="#1C1514"/>
<path d="M44.9545 1.95947H45.1315V3.90338H44.9424L44.8941 3.77378C44.7182 3.6961 44.5225 3.66133 44.3268 3.67299H37.3782V6.04887H41.9811C42.1227 6.06791 42.267 6.03692 42.3834 5.96247L42.4277 5.84728H42.6611V6.67884H35.2698V3.03942C35.2698 2.93862 35.2377 2.75143 35.2377 2.62184C35.2377 2.59304 35.2014 2.43465 35.1733 2.39145C35.0917 2.34593 35.0054 2.30736 34.9158 2.27626V2.10347H44.5079C44.7332 2.10347 44.7332 2.10346 44.878 2.06027L44.9545 1.95947Z" fill="#1C1514"/>
<path d="M92.2432 2.07471H94.6975V2.31949H94.5647C94.3274 2.47789 94.3877 2.78027 94.3877 2.89547V6.67888H92.553V2.99626C92.553 2.86667 92.553 2.72268 92.553 2.59308C92.553 2.37709 92.4564 2.37709 92.2472 2.2763L92.2432 2.07471Z" fill="#1C1514"/>
<path d="M108.092 2.65074L108.285 2.78033L107.122 4.83943L106.905 4.76743V4.58024C106.142 4.03512 105.238 3.67245 104.275 3.52635C103.313 3.38025 102.325 3.45552 101.405 3.74509C100.796 3.93974 100.256 4.27568 99.8405 4.71847C99.4248 5.16127 99.1481 5.69499 99.0389 6.26496C99.0147 6.40535 99.0027 6.54935 98.9906 6.69694H96.9265C96.9501 6.00148 97.1478 5.31962 97.505 4.70159C97.8622 4.08356 98.3699 3.54511 98.9906 3.12592C101.228 1.5276 105.348 1.88758 107.162 2.49235C107.284 2.55151 107.412 2.59974 107.545 2.63634C107.676 2.69837 107.819 2.73746 107.967 2.75154L108.092 2.65074Z" fill="#1C1514"/>
<path d="M139.431 2.47788L143.821 6.67887H140.964L138.739 4.56217V6.67887H136.904V2.90985C136.909 2.78897 136.897 2.66798 136.868 2.54987C136.868 2.42028 136.82 2.26189 136.631 2.26189V2.0459H139.588L139.608 2.24749L139.431 2.34828V2.47788Z" fill="#1C1514"/>
<path d="M145.692 2.07471H148.15V2.31949H148.005C147.76 2.47789 147.828 2.78027 147.828 2.89547V6.67888H146.014V2.99626C146.014 2.86667 145.993 2.72268 145.993 2.59308C145.993 2.37709 145.897 2.37709 145.692 2.2763V2.07471Z" fill="#1C1514"/>
<path d="M117.302 0.199219H120.746V0.429607C120.658 0.426164 120.571 0.444527 120.494 0.482655C120.418 0.520782 120.354 0.577183 120.311 0.645597C120.262 0.798725 120.246 0.958662 120.263 1.11717V6.67889H117.72V1.05238C117.736 0.909946 117.736 0.766427 117.72 0.623998C117.685 0.556878 117.627 0.501145 117.555 0.464417C117.483 0.427689 117.4 0.41176 117.318 0.418808L117.302 0.199219Z" fill="#1C1514"/>
<path d="M160.607 1.95947V3.90338H160.41L160.365 3.77378C160.191 3.69672 159.997 3.66197 159.802 3.67299H152.854V6.04887H157.452C157.523 6.05908 157.594 6.0567 157.663 6.04187C157.732 6.02704 157.797 6.00005 157.855 5.96247L157.907 5.84728H158.136V6.67884H150.745V3.03942C150.745 2.93862 150.713 2.75143 150.713 2.62184C150.713 2.59304 150.677 2.43465 150.649 2.39145C150.567 2.34593 150.481 2.30736 150.391 2.27626V2.10347H159.979C160.204 2.10347 160.205 2.10346 160.349 2.06027L160.414 1.95947H160.607Z" fill="#1C1514"/>
<path d="M131.412 2.0459H134.398V2.33388C134.233 2.33388 134.108 2.33388 133.995 2.59307C133.949 2.73807 133.933 2.88927 133.947 3.03945V6.67887H131.843V3.02505C131.857 2.87487 131.84 2.72367 131.794 2.57867C131.698 2.33388 131.553 2.31948 131.392 2.31948L131.412 2.0459Z" fill="#1C1514"/>
<path d="M68.0094 6.67885H70.0212C69.9677 6.29476 69.9868 5.90536 70.0775 5.52691C70.239 4.97436 70.566 4.47175 71.0234 4.07334C71.4807 3.67493 72.051 3.39585 72.6727 3.26623C74.1212 2.84865 76.491 2.90624 77.8631 3.98619C78.2704 4.32992 78.5893 4.74877 78.7977 5.21371C79.0061 5.67865 79.0991 6.17858 79.0701 6.67885H81.1261C81.1328 5.94915 80.9686 5.22629 80.6443 4.55672C80.32 3.88716 79.8427 3.28571 79.2431 2.79105C77.0704 1.10634 74.0125 1.26473 72.041 1.7687C69.993 2.30148 68.8222 3.20863 68.2227 4.95094C68.0329 5.51018 67.9606 6.09604 68.0094 6.67885Z" fill="#1C1514"/>
</g>
<defs>
<clipPath id="clip0_5575_1950">
<rect width="175" height="17" fill="white"/>
</clipPath>
</defs>
</svg>
