<svg width="290" height="290" viewBox="0 0 290 290" fill="none" xmlns="http://www.w3.org/2000/svg">
<g clip-path="url(#clip0_5383_7719)">
<rect width="289.5" height="289.5" rx="144.75" fill="#04471C"/>
<g clip-path="url(#clip1_5383_7719)">
<circle cx="81.4219" cy="167.367" r="22.6172" fill="#F0BD70"/>
<path d="M81.4219 185.461H158.32V297.961C158.32 297.961 141.842 307.594 119.871 307.594C97.9001 307.594 81.4219 291.864 81.4219 291.864V185.461Z" fill="#F0BD70"/>
<path d="M157.467 240.25C157.467 264.607 153.526 262.301 127.912 262.301C102.298 262.301 90.4759 242.556 90.4759 218.198C90.4759 193.841 89.5037 171.891 110.179 171.891C168.633 174.045 157.467 215.892 157.467 240.25Z" fill="#E9B05B"/>
<path d="M207.561 163.292C207.561 203.653 201.293 253.282 151.535 253.282C101.777 253.282 78.8362 203.653 78.8362 163.292C67.8514 115.348 70.113 58.8047 144.75 58.8047C219.387 58.8047 207.561 122.932 207.561 163.292Z" fill="#FFCB7E"/>
<rect x="162.844" y="185.461" width="13.5703" height="9.04688" rx="4.52344" fill="#F0BD70"/>
</g>
<g clip-path="url(#clip2_5383_7719)">
<g clip-path="url(#clip3_5383_7719)">
<rect x="31.6641" y="271.406" width="180.938" height="104.039" rx="40.7109" fill="#928987"/>
<path d="M76.8984 262.359H162.844V275.93C162.844 275.93 140.227 280.453 119.871 280.453C99.5156 280.453 76.8984 275.93 76.8984 275.93V262.359Z" fill="#928987"/>
<path d="M76.8984 262.359H162.844V271.406C162.844 271.406 149.273 278.191 119.871 278.191C90.4688 278.191 76.8984 271.406 76.8984 271.406V262.359Z" fill="#78716F"/>
<path d="M74.6367 266.883C74.6367 261.886 78.6871 257.836 83.6836 257.836H156.059C161.055 257.836 165.105 261.886 165.105 266.883C165.105 266.883 142.488 271.406 119.871 271.406C97.2539 271.406 74.6367 266.883 74.6367 266.883Z" fill="#928987"/>
</g>
</g>
<path fill-rule="evenodd" clip-rule="evenodd" d="M131.021 118.52C156.402 126.947 191.585 138.627 228.434 101.778C246.527 83.6844 165.105 6.78593 99.5156 49.7586C48.2503 57.3534 51.1801 88.0714 53.4412 111.778C53.8734 116.31 54.2813 120.586 54.2813 124.395C54.2813 126.806 54.5963 128.61 55.1873 129.906C54.4602 135.483 54.2812 141.065 54.2812 144.75C54.2812 154.743 62.3821 162.844 72.375 162.844C82.3679 162.844 90.4688 154.743 90.4688 144.75C100.462 144.75 108.562 136.649 108.562 126.656C108.562 125.091 108.364 123.572 107.99 122.124C108.18 122.13 108.371 122.133 108.562 122.133C114.098 122.133 119.052 119.647 122.371 115.732C125.106 116.556 127.994 117.515 131.021 118.52Z" fill="#332222"/>
<g clip-path="url(#clip4_5383_7719)">
<rect x="135.703" y="158.32" width="13.5703" height="18.0938" rx="6.78516" fill="#3D2828"/>
<rect x="180.938" y="158.32" width="13.5703" height="18.0938" rx="6.78516" fill="#3D2828"/>
</g>
<g clip-path="url(#clip5_5383_7719)">
<path d="M130.857 208.078C130.857 205.58 132.882 203.555 135.38 203.555H176.737C179.235 203.555 181.261 205.58 181.261 208.078C181.261 220.569 171.135 230.695 158.644 230.695H153.474C140.983 230.695 130.857 220.569 130.857 208.078Z" fill="#66253C"/>
<path fill-rule="evenodd" clip-rule="evenodd" d="M166.257 229.382C163.878 230.232 161.315 230.696 158.643 230.696H153.474C141.285 230.696 131.349 221.054 130.874 208.982C134.33 207.689 139.46 207.838 144.523 207.985C146.132 208.032 147.734 208.078 149.273 208.078C159.266 208.078 167.367 215.166 167.367 223.91C167.367 225.833 166.975 227.677 166.257 229.382Z" fill="#B03E67"/>
<path d="M135.703 203.555H180.938V208.078C180.938 210.576 178.912 212.602 176.414 212.602H140.227C137.728 212.602 135.703 210.576 135.703 208.078V203.555Z" fill="white"/>
</g>
</g>
<defs>
<clipPath id="clip0_5383_7719">
<rect width="289.5" height="289.5" rx="144.75" fill="white"/>
</clipPath>
<clipPath id="clip1_5383_7719">
<rect width="289.5" height="289.5" fill="white"/>
</clipPath>
<clipPath id="clip2_5383_7719">
<rect width="289.5" height="289.5" fill="white"/>
</clipPath>
<clipPath id="clip3_5383_7719">
<rect width="289.5" height="289.5" fill="white"/>
</clipPath>
<clipPath id="clip4_5383_7719">
<rect y="-4.52344" width="289.5" height="289.5" rx="144.75" fill="white"/>
</clipPath>
<clipPath id="clip5_5383_7719">
<rect width="289.5" height="289.5" fill="white" transform="translate(4.52344)"/>
</clipPath>
</defs>
</svg>
